<?xml version="1.0" encoding="UTF-8"?>
<svg width="320px" height="56px" viewBox="0 0 320 56" version="1.1" xmlns="http://www.w3.org/2000/svg" xmlns:xlink="http://www.w3.org/1999/xlink">
    <!-- Generator: Sketch 54.1 (76490) - https://sketchapp.com -->
    <title>Group 8</title>
    <desc>Created with Sketch.</desc>
    <defs>
        <linearGradient x1="0%" y1="50%" x2="100%" y2="50%" id="linearGradient-1">
            <stop stop-color="#E1BBF4" offset="0%"></stop>
            <stop stop-color="#29E7D6" offset="100%"></stop>
        </linearGradient>
    </defs>
    <g id="amount-brand-refresh-r4" stroke="none" stroke-width="1" fill="none" fill-rule="evenodd">
        <g id="Group-8">
            <path d="M41.9046971,0 L32.0473074,19.377264 L29.012547,13.4689788 L21.6377371,13.4689788 L0,56 L13.4190286,56 L42.1383692,56 L50.8616308,56 L79.5809714,56 L93,56 L71.1509162,13.4689788 L63.7761063,13.4689788 L60.7681364,19.3818882 L50.8110266,0 L41.9046971,0 Z M35.0314636,25.1868979 L45.0763863,5.43969171 L47.6557094,5.43969171 L57.8077939,25.2007707 L46.4799072,47.4682081 L35.0314636,25.1868979 Z M63.7508042,25.1868979 L66.9433304,18.9086705 L67.9941106,18.9086705 L84.2559014,50.5603083 L76.7858366,50.5603083 L63.7508042,25.1868979 Z M24.8064495,18.9086705 L25.8557414,18.9086705 L29.0869649,25.1976879 L16.1858846,50.5603083 L8.7054013,50.5603083 L24.8064495,18.9086705 Z M60.7889734,31.0042389 L70.8368728,50.5603083 L50.8422821,50.5603083 L60.7889734,31.0042389 Z M32.0711211,31.0042389 L42.1190206,50.5603083 L22.1229415,50.5603083 L32.0711211,31.0042389 Z" id="Fill-1" fill="url(#linearGradient-1)"></path>
            <path d="M208.401089,41.8405281 C211.00203,41.8405281 213.072756,41.012521 214.655805,39.3185247 C216.272278,37.6230092 217.062284,35.3623219 217.062284,32.5 C217.062284,29.5996961 216.272278,27.3405281 214.655805,25.6845138 C213.072756,23.987479 211.00203,23.1594719 208.401089,23.1594719 C205.804705,23.1594719 203.69296,23.987479 202.076487,25.6845138 C200.455457,27.3405281 199.663932,29.5996961 199.663932,32.5 C199.663932,35.3623219 200.455457,37.6230092 202.076487,39.3185247 C203.69296,41.012521 205.804705,41.8405281 208.401089,41.8405281 Z M197.856035,21.9926655 C200.605861,19.3187343 204.109232,18 208.401089,18 C212.658003,18 216.161374,19.3187343 218.909681,21.9926655 C221.659508,24.6286148 223.01619,28.1320725 223.01619,32.5 C223.01619,36.8679275 221.659508,40.3713852 218.909681,43.0468357 C216.161374,45.6812657 212.658003,47 208.401089,47 C204.109232,47 200.605861,45.6812657 197.856035,43.0468357 C195.107727,40.3713852 193.749525,36.8679275 193.749525,32.5 C193.749525,28.1320725 195.107727,24.6286148 197.856035,21.9926655 Z M249.593798,35.0612008 L249.593798,18.4129401 L255.392743,18.4129401 L255.392743,35.1356454 C255.392743,38.8654757 254.338389,41.8022422 252.191701,43.874539 C250.046532,45.9468357 247.146301,46.9996961 243.415044,46.9996961 C239.686826,46.9996961 236.750132,45.9468357 234.604963,43.874539 C232.459795,41.8022422 231.402403,38.8654757 231.402403,35.1356454 L231.402403,18.4129401 L237.202866,18.4129401 L237.202866,35.0612008 C237.202866,39.4671102 239.351073,41.8402242 243.415044,41.8402242 C247.44711,41.8402242 249.593798,39.4671102 249.593798,35.0612008 Z M282.08475,35.8898156 L282.08475,18.4135478 L287.883694,18.4135478 L287.883694,46.5870599 L282.949198,46.5870599 L270.599285,29.1472548 L270.599285,46.5870599 L264.759321,46.5870599 L264.759321,18.4135478 L269.693817,18.4135478 L282.08475,35.8898156 Z M295.32904,18.413092 L320,18.413092 L320,23.5361012 L310.583742,23.5361012 L310.583742,46.5866041 L304.783279,46.5866041 L304.783279,23.5361012 L295.32904,23.5361012 L295.32904,18.413092 Z M130.088603,18.4124843 L134.983599,18.4124843 L147.113222,46.5859964 L140.70962,46.5859964 L138.409488,41.1621699 L126.697657,41.1621699 L124.364102,46.5859964 L118,46.5859964 L130.088603,18.4124843 Z M132.574082,27.4157324 L128.768383,36.415942 L136.378263,36.415942 L132.574082,27.4157324 Z M180.016191,18.4124843 L185.139073,18.4124843 L185.139073,46.5859964 L179.379629,46.5859964 L179.379629,31.3688967 L171.620864,46.2851792 L167.778702,46.2851792 L159.981956,31.3688967 L159.981956,46.5859964 L154.141992,46.5859964 L154.141992,18.4124843 L159.304374,18.4124843 L169.697504,37.7726582 L180.016191,18.4124843 Z" id="Combined-Shape" fill="#3A3A3A"></path>
        </g>
    </g>
</svg>